 http://imageshack.us/m/825/4999/deathatafuneralg.jpg

Country.......: USA
Genre.........: Comedy
Date release..: 16.04.2010 [World]
Director......: Neil LaBute
Writers.......: Dean Craig
Duration......: 89 min.
More..........: http://www.imdb.com/title/tt1321509
Trailer.......: http://www.imdb.com/video/imdb/vi1688273945
Trailer.......:

Pilot :
A funeral ceremony turns into a debacle of exposed family secrets and misplaced bodies. 

Cats :
Keith David   	 ...  	Reverend Davis
Loretta Devine 	... 	Cynthia
Peter Dinklage 	... 	Frank
Ron Glass 	... 	Duncan
Danny Glover 	... 	Uncle Russell
Regina Hall 	... 	Michelle
Kevin Hart 	... 	Brian
Martin Lawrence 	... 	Ryan
James Marsden 	... 	Oscar
Tracy Morgan 	... 	Norman
Chris Rock 	... 	Aaron
Zoe Saldana 	... 	Elaine (as Zoe Saldana)
Columbus Short 	... 	Jeff
Luke Wilson 	... 	Derek
Regine Nehy 	... 	Martina 

Data Technical :
!!! SAMPLE !!!
Audio.....: English
Subtitles.: English .srt, Greek .srt, Portugues .srt, Polish .txt
Format                           : AVI
Format/Info                      : Audio Video Interleave
File size                        : 701 MiB
Duration                         : 1h 28mn
Overall bit rate                 : 1 107 Kbps
Writing application              : VirtualDubMod 1.5.4.1 (build 2178/release)
Writing library                  : VirtualDubMod build 2178/release
Video
ID                               : 0
Format                           : MPEG-4 Visual
Format profile                   : Advanced Simple@L5
Format settings, BVOP            : Yes
Format settings, QPel            : No
Format settings, GMC             : No warppoints
Format settings, Matrix          : Default (H.263)
Muxing mode                      : Packed bitstream
Codec ID                         : DX50
Codec ID/Hint                    : DivX 5
Duration                         : 1h 28mn
Bit rate                         : 969 Kbps
Width                            : 640 pixels
Height                           : 272 pixels
Display aspect ratio             : 2.35:1
Frame rate                       : 25.000 fps
Color space                      : YUV
Chroma subsampling               : 4:2:0
Bit depth                        : 8 bits
Scan type                        : Progressive
Bits/(Pixel*Frame)               : 0.223
Stream size                      : 614 MiB (88%)
Writing library                  : XviD 1.2.1 (UTC 2008-12-04)
Audio
ID                               : 1
Format                           : MPEG Audio
Format version                   : Version 1
Format profile                   : Layer 3
Mode                             : Joint stereo
Mode extension                   : MS Stereo
Codec ID                         : 55
Codec ID/Hint                    : MP3
Duration                         : 1h 28mn
Bit rate mode                    : Constant
Bit rate                         : 128 Kbps
Channel(s)                       : 2 channels
Sampling rate                    : 48.0 KHz
Stream size                      : 81.1 MiB (12%)
Alignment                        : Aligned on interleaves
Interleave, duration             : 40 ms (1.00 video frame)
Interleave, preload duration     : 504 ms

Screen : 
http://imageshack.us/m/541/3028/deathatafuneral2010s1.jpg 
http://imageshack.us/m/683/4420/deathatafuneral2010s2.jpg 
http://imageshack.us/m/35/6255/deathatafuneral2010s3.jpg 
http://imageshack.us/m/831/4101/deathatafuneral2010s4.jpg 
http://imageshack.us/m/31/6553/deathatafuneral2010s5.jpg